<svg width="500px" height="300px" xmlns="http://www.w3.org/2000/svg" fill="red">
<path d="M0 300
v -0
h 12 
v 0
h 6
v -11
h 12 
v 11
h 6
v -22
h 12 
v 22
h 6
v -33
h 12 
v 33
h 6
v -44
h 12 
v 44
h 6
v -55
h 12 
v 55
h 6
v -66
h 12 
v 66
h 6
v -77
h 12 
v 77
h 6
v -88
h 12 
v 88
h 6
v -99
h 12 
v 99
h 6
v -110
h 12 
v 110
h 6
v -121
h 12 
v 121
h 6
v -132
h 12 
v 132
h 6
v -143
h 12 
v 143
h 6
v -154
h 12 
v 154
h 6
v -165
h 12 
v 165
h 6
v -176
h 12 
v 176
h 6
v -187
h 12 
v 187
h 6
v -198
h 12 
v 198
h 6
v -209
h 12 
v 209
h 6
v -220
h 12 
v 220
h 6
v -231
h 12 
v 231
h 6
v -242
h 12 
v 242
h 6
v -253
h 12 
v 253
h 6
v -264
h 12 
v 264
h 6"/>
</svg>